<?xml version="1.0" encoding="utf-8"?>
<!-- Generator: Adobe Illustrator 18.0.0, SVG Export Plug-In . SVG Version: 6.00 Build 0)  -->
<!DOCTYPE svg PUBLIC "-//W3C//DTD SVG 1.1//EN" "http://www.w3.org/Graphics/SVG/1.1/DTD/svg11.dtd">
<svg version="1.1" id="Layer_1" xmlns="http://www.w3.org/2000/svg" xmlns:xlink="http://www.w3.org/1999/xlink" x="0px" y="0px"
	 viewBox="0 0 64 64" enable-background="new 0 0 64 64" xml:space="preserve">
<g>
	<g>
		<g>
			<rect x="21" y="35" fill="#231F20" width="6" height="17"/>
		</g>
	</g>
	<g>
		<g>
			<path fill="#231F20" d="M37,14l0-14H27v14L37,14C37,14,37,14,37,14z"/>
		</g>
	</g>
	<g>
		<g>
			<path fill="#231F20" d="M37,23l0-5c0,0,0,0,0,0H27v5c-3.2,0.7-5.6,4.5-5.9,8H29c1.1,0,2,0.9,2,2v21c0,1.1-0.9,2-2,2h-8v8h22V31.8
				C43,27.9,40.9,23.4,37,23z"/>
		</g>
	</g>
</g>
</svg>
